<?xml version="1.0" encoding="UTF-8" standalone="no"?>
<svg xmlns="http://www.w3.org/2000/svg" width="50mm" height="50mm" viewBox="0 0 177.16535 177.16535"><script xmlns=""/>
<!--
Icon by Jules78120 based on work by Alphos, Booyabazooka, and Essjay.
https://commons.wikimedia.org/wiki/File:Broom_Icon_(temporary_sysop).svg
-->
  <g transform="matrix(1.49592 0 0 1.48161 686.89736128 -833.35847639)">
    <circle cx="-400.22241" cy="625.10132" r="54.226532" fill="#fc3"/>
    <path d="M-419.28455 659.80404s-11.12511-1.8703-11.12511-13.29757c0-11.78331 16.43568-31.68571 23.57268-35.93958 4.74897-2.83054 8.23914-2.92039 13.32288-2.03543 5.08374.88497 6.92439 4.69034 6.92439 7.61075 0 5.66062-6.57379 17.46416-6.57379 22.92072 0 10.08905 12.44639 8.9382 12.44639 8.9382-.70691 2.91517-3.57959 3.95508-6.83675 4.24786 1.01144.94917 2.19725 1.94865 4.82078 3.36288-7.38454.66885-7.76551-.50696-10.16746-1.15046.85993 1.36461 1.85783 2.9544 3.24307 4.42485-3.87706.17989-7.25136-1.16307-10.43043-3.09739.23429 1.65195.24858 3.30388 1.13947 4.95583-4.90704-.93441-9.32092-2.66552-13.05995-5.48682.15161 1.39203.33524 2.8164 1.40242 5.13282-2.92579-.72864-6.01906-2.30284-9.64156-6.54876-.31133 1.50854.37156 3.76996.96297 5.9621z"/>
    <path d="M-421.35612 659.72335c-2.37458-1.26151-9.10914-2.66472-9.10914-12.4126 0-11.78331 16.08507-30.71224 23.22205-34.96611 4.74899-2.83054 7.71326-3.09739 12.79699-2.21242 5.08374.88496 6.31086 4.42484 6.31086 7.34525 0 5.66062-6.48615 17.28717-6.48615 22.74373 0 10.08905 11.83282 9.64617 11.83282 9.64617-1.7587 2.47268-3.75488 2.45063-7.01204 2.74341 1.01144.94918.88248 1.94865 3.50602 3.36289-3.35262.49185-6.0125-.77245-8.3268-1.50445.85992 1.36461.89367 3.0429 2.27891 4.51335-3.6141.17988-7.16371-2.22504-9.11566-3.89388-.29161 2.00594-.0143 4.18886.26295 5.48682-4.73174-.93441-9.75917-3.55049-12.27107-6.10629-.28666 1.65751.0723 3.78986.78884 5.7523-2.99832-.77259-6.1937-3.68301-8.8527-7.34525-.31132 1.13494-.41729 3.87965.17412 6.84708z"/>
    <path d="M-423.28326 634.4689c-4.43958 7.61319-4.65888 12.70132-2.80481 16.54893-1.07254-6.91952.9231-11.69441 2.80481-16.54893zm14.3747-12.65508c-6.30985 7.58151-14.51438 14.63698-11.92048 24.69066-.6271-8.56943 5.22679-16.89047 11.92048-24.69066zm-3.06776 10.00016c-3.4447 6.16449-5.31657 12.51223-2.71718 19.38085-.93536-6.99139.39181-13.33009 2.71718-19.38085zm8.5021-8.31872c-4.36838 8.59582-8.15725 17.14417-4.03192 25.04466-2.00433-8.34822.47689-16.69644 4.03192-25.04466zm7.53794-4.33635c-4.23007 9.41457-8.82122 18.7179-3.24306 31.68193-3.04704-11.53651-1.16975-20.84586 3.24306-31.68193zm3.24308 2.03544c-4.59743 9.79415-4.82555 16.27967-3.85663 21.85875.18493-7.28626 1.81564-14.57251 3.85663-21.85875z"/>
    <path d="M-422.6697 657.47811c-.28551-3.47386.27544-5.46934.97687-5.70282.51547-.17156 3.69533 5.03047 7.61289 6.76479 0 0-.63499-4.60015.0877-5.00008.48411-.26793 3.70382 2.46356 8.58977 1.99118 5.8184-10.77328 11.13162-3.61852 11.13162-9.1152 0-8.58888-30.53741.19723-31.97055 5.59745-.54914 2.06921 2.21317 4.62396 3.57176 5.46468zm6.99781-38.41098-4.8343 5.88221c1.17599 5.96305 9.74386 11.25005 28.31969 7.5718l2.04528-5.44418c-17.61379 2.53661-23.90356-1.06149-25.53067-8.00983z"/>
    <path d="M-403.56187 629.60155c-20.78356 19.47309-19.76537 3.61475-12.09579-7.87623 12.69185-19.0156 26.30114-10.84993 25.68162-5.30982-1.2271 10.97364-3.6272 3.85534-13.58583 13.18605z"/>
    <path d="M-397.59989 613.6596c8.3619 4.47415 12.37823-3.20476 6.19784-6.32027-8.33011-4.19917-12.37946 3.0127-6.19784 6.32027z"/>
    <path d="M-397.06908 613.13998c7.44226 4.00462 10.98954-2.65364 5.3164-5.41764-7.27555-3.54469-10.6731 2.53523-5.3164 5.41764z"/>
    <path d="M-397.06246 610.63312c5.50562 2.25776 8.1918-1.1832 3.99494-2.74149-5.38232-1.99846-7.95774 1.11643-3.99494 2.74149z"/>
    <path d="M-383.18019 589.80122h7.54792l-16.62268 20.77349c-2.53786.4664-3.41673-.5304-3.41837-2.30093z"/>
    <path d="M-387.58433 598.54632h4.63707l-9.48572 11.14095c-1.60083.38522-2.46242-.00003-2.33981-1.49364l7.18846-9.64731z"/>
    <path d="m-387.3984 598.57761 2.57417-.0313-6.3382 8.16854c-1.58031 1.27763-2.74556.72613.69714-4.12186l3.06689-4.01539z"/>
  </g>
</svg>